#!OML:ASF F:\VICON\USERDATA\INSTALL\rory3\rory3.ASF
:FULLY-SPECIFIED
:DEGREES
170
root 1.29446 17.9478 1.14954 -5.65207 -0.645406 5.57027
lowerback 16.0885 -0.762864 -6.23218
upperback 0.922305 -2.04129 1.22198
thorax -7.78278 -0.746013 5.31617
lowerneck -11.4664 -0.149438 -0.687347
upperneck 23.948 0.579382 -2.67931
head 9.44056 -0.0928376 -0.74266
rclavicle 1.29707e-014 -3.97569e-015
rhumerus -36.7527 -10.1202 -78.195
rradius 29.7707
rwrist 1.57735
rhand -13.9106 10.0489
rfingers 7.12502
rthumb 12.2153 -19.5744
lclavicle 1.29707e-014 -3.97569e-015
lhumerus -34.3992 -0.805895 85.7115
lradius 44.3063
lwrist 7.59969
lhand -16.2722 45.8345
lfingers 7.12502
lthumb 9.93758 75.5799
rfemur -23.0506 6.01918 14.494
rtibia 19.1612
rfoot -10.838 -15.8438
rtoes 1.99012
lfemur 14.5307 -6.4943 -31.7826
ltibia 19.8151
lfoot -9.45172 -4.03863
ltoes -18.4438
171
root 1.26335 17.9326 1.31121 -5.74349 -0.557017 5.49608
lowerback 16.2806 -0.746841 -6.31258
upperback 0.907093 -2.04204 1.28999
thorax -7.90112 -0.736583 5.44491
lowerneck -12.3381 -0.072148 -1.42224
upperneck 25.0049 0.683623 -1.84014
head 9.9804 -0.0359391 -0.321671
rclavicle 2.01269e-014 7.95139e-016
rhumerus -36.7729 -10.1896 -78.1069
rradius 29.3632
rwrist 1.77202
rhand -14.0964 10.0669
rfingers 7.12502
rthumb 12.0362 -19.567
lclavicle 2.01269e-014 7.95139e-016
lhumerus -34.5553 -0.750121 85.8039
lradius 44.1887
lwrist 8.25146
lhand -15.9068 47.0834
lfingers 7.12502
lthumb 10.2901 76.8117
rfemur -22.8536 6.17224 14.7607
rtibia 20.1981
rfoot -10.8313 -15.2118
rtoes 1.5052
lfemur 14.921 -6.64271 -31.7135
ltibia 20.3457
lfoot -9.25574 -3.94966
ltoes -21.6797
172
root 1.24205 17.9144 1.51764 -6.00391 -0.11283 5.82243
lowerback 16.1841 -0.86621 -6.62893
upperback 0.925068 -2.25702 1.21879
thorax -7.78922 -0.836104 5.58991
lowerneck -10.9939 -0.249963 -1.0391
upperneck 23.8392 0.475783 -2.57748
head 9.31169 -0.157118 -0.657458
rclavicle 2.0276e-014 -1.59028e-014
rhumerus -37.0632 -10.3214 -77.8463
rradius 28.9623
rwrist 2.17922
rhand -14.0674 10.4779
rfingers 7.12502
rthumb 12.0642 -19.1543
lclavicle 2.0276e-014 -1.59028e-014
lhumerus -34.7644 -0.561179 85.9312
lradius 43.5599
lwrist 9.25441
lhand -18.1614 45.3785
lfingers 7.12502
lthumb 8.11453 75.2027
rfemur -21.9658 5.51232 14.6033
rtibia 20.7317
rfoot -10.8778 -13.8695
rtoes 0.0416293
lfemur 15.5706 -6.9158 -32.2143
ltibia 21.0332
lfoot -8.96903 -3.8679
ltoes -22.3561
173
root 1.21084 17.9186 1.70003 -5.89487 -0.050309 5.04817
lowerback 15.8606 -0.972795 -5.97038
upperback 0.921684 -2.23644 1.48069
thorax -7.62875 -0.851836 5.47932
lowerneck -11.5836 -0.15225 -1.50055
upperneck 24.6112 0.589678 -1.95462
head 9.69493 -0.0907345 -0.356785
rclavicle 3.29486e-014 3.97569e-015
rhumerus -37.1912 -10.6155 -77.5527
rradius 28.5728
rwrist 2.56301
rhand -13.9925 10.8353
rfingers 7.12502
rthumb 12.1364 -18.7927
lclavicle 3.29486e-014 3.97569e-015
lhumerus -34.7566 -0.199057 85.9061
lradius 43.8811
lwrist 7.83782
lhand -17.3642 46.7373
lfingers 7.12502
lthumb 8.88388 76.5303
rfemur -21.5397 5.80809 15.5951
rtibia 20.8976
rfoot -10.9328 -13.2676
rtoes -0.105041
lfemur 15.6366 -7.25013 -31.4282
ltibia 21.7427
lfoot -8.30914 -3.97253
ltoes -22.8143
174
root 1.17963 17.9534 1.89192 -5.85377 0.151572 4.57438
lowerback 15.598 -1.06795 -5.58464
upperback 0.958499 -2.26626 1.62571
thorax -7.44675 -0.885707 5.40904
lowerneck -11.4888 -0.195728 -1.19823
upperneck 24.4135 0.540687 -2.29154
head 9.60771 -0.120004 -0.529524
rclavicle -3.47376e-014 2.70347e-014
rhumerus -37.2618 -11.0425 -77.3227
rradius 28.2863
rwrist 2.95974
rhand -13.7754 10.6249
rfingers 7.12502
rthumb 12.3457 -18.9906
lclavicle -3.47376e-014 2.70347e-014
lhumerus -34.9195 0.0234975 85.8748
lradius 44.064
lwrist 7.13167
lhand -17.3131 46.9162
lfingers 7.12502
lthumb 8.93321 76.7071
rfemur -21.0023 6.59994 16.0717
rtibia 20.783
rfoot -9.99332 -13.6578
rtoes -0.130837
lfemur 15.7431 -7.57965 -30.9345
ltibia 22.4916
lfoot -7.35741 -4.16407
ltoes -22.5276
175
root 1.14855 17.9834 2.07296 -5.82858 0.555767 4.14927
lowerback 15.5624 -1.23299 -5.22898
upperback 0.898102 -2.41307 1.73276
thorax -7.48248 -0.964328 5.35242
lowerneck -10.4764 -0.259983 -0.203756
upperneck 23.1707 0.469835 -3.43633
head 8.98289 -0.165595 -1.08596
rclavicle -5.37713e-014 1.98785e-014
rhumerus -37.2974 -11.5731 -77.0637
rradius 27.7992
rwrist 3.57031
rhand -13.6817 10.4717
rfingers 7.12502
rthumb 12.436 -19.1383
lclavicle -5.37713e-014 1.98785e-014
lhumerus -35.1598 0.267605 85.7987
lradius 43.9162
lwrist 7.01658
lhand -16.6979 47.6133
lfingers 7.12502
lthumb 9.52688 77.3779
rfemur -20.3331 7.58581 16.3505
rtibia 20.1966
rfoot -8.38455 -14.5699
rtoes 1.21716
lfemur 15.5912 -7.89674 -30.4075
ltibia 23.6361
lfoot -6.42086 -4.53357
ltoes -22.0137
176
root 1.11733 18.0041 2.25642 -5.6682 0.831876 3.66136
lowerback 15.29 -1.39322 -4.88379
upperback 0.756603 -2.53782 1.94717
thorax -7.47244 -1.03055 5.40429
lowerneck -10.3018 -0.0784642 0.0504933
upperneck 22.9482 0.728138 -3.70586
head 8.87957 -0.0462809 -1.19032
rclavicle -1.3418e-014 -7.95139e-015
rhumerus -37.3751 -11.8988 -76.6655
rradius 27.234
rwrist 4.10904
rhand -13.6371 10.4556
rfingers 7.12502
rthumb 12.479 -19.1518
lclavicle -1.3418e-014 -7.95139e-015
lhumerus -35.4646 0.761835 85.8461
lradius 43.6293
lwrist 6.98578
lhand -14.6298 48.9864
lfingers 7.12502
lthumb 11.5218 78.6497
rfemur -19.8032 8.44017 16.733
rtibia 19.5848
rfoot -6.61651 -15.0664
rtoes 0.730608
lfemur 15.2532 -8.28335 -29.8504
ltibia 24.8554
lfoot -5.28814 -4.75329
ltoes -21.6456
177
root 1.09088 18.0254 2.44757 -5.5382 0.982362 3.05646
lowerback 15.018 -1.50674 -4.36675
upperback 0.634449 -2.57054 2.19161
thorax -7.45922 -1.05827 5.37036
lowerneck -11.7384 -0.0913599 -1.32895
upperneck 25.3712 0.748548 -2.30257
head 9.99995 -0.0509338 -0.493239
rclavicle -1.04362e-015 -1.51076e-014
rhumerus -37.6057 -12.056 -76.3086
rradius 26.8849
rwrist 4.29351
rhand -13.5402 10.5251
rfingers 7.12502
rthumb 12.5725 -19.0766
lclavicle -1.04362e-015 -1.51076e-014
lhumerus -35.7421 1.11621 85.954
lradius 43.332
lwrist 6.85996
lhand -16.9305 47.4861
lfingers 7.12502
lthumb 9.3024 77.2609
rfemur -19.2131 8.94848 17.3513
rtibia 19.0832
rfoot -5.05052 -14.9919
rtoes 1.89794
lfemur 14.858 -8.65203 -29.2067
ltibia 26.227
lfoot -3.85911 -4.88931
ltoes -21.5908
178
root 1.06794 18.0485 2.63784 -5.37613 1.08396 2.40714
lowerback 14.7422 -1.60221 -3.74089
upperback 0.513677 -2.56354 2.43667
thorax -7.45167 -1.07055 5.26627
lowerneck -11.6452 -0.190962 -1.6533
upperneck 25.6673 0.663422 -2.2185
head 10.0884 -0.115164 -0.420282
rclavicle -2.47984e-014 1.27222e-014
rhumerus -37.8422 -12.4089 -75.8531
rradius 26.5252
rwrist 4.60564
rhand -13.5088 10.7315
rfingers 7.12502
rthumb 12.6027 -18.8683
lclavicle -2.47984e-014 1.27222e-014
lhumerus -35.8058 1.34922 86.093
lradius 42.7419
lwrist 6.96599
lhand -17.7067 47.1521
lfingers 7.12502
lthumb 8.55335 76.9588
rfemur -18.7124 9.13127 18.0908
rtibia 18.7278
rfoot -2.7382 -14.7101
rtoes 5.42792
lfemur 14.338 -8.84063 -28.4379
ltibia 27.5804
lfoot -2.04256 -5.18811
ltoes -21.8363
179
root 1.0525 18.0687 2.83654 -5.21163 1.10233 2.14355
lowerback 14.4012 -1.61457 -3.38356
upperback 0.354418 -2.50272 2.55462
thorax -7.44904 -1.04894 5.16553
lowerneck -11.6875 -0.180407 -1.87069
upperneck 26.0644 0.705197 -2.08995
head 10.2408 -0.107822 -0.335101
rclavicle -4.07509e-014 2.06736e-014
rhumerus -38.1052 -12.9657 -75.2476
rradius 26.0122
rwrist 5.02437
rhand -13.6355 10.8465
rfingers 7.12502
rthumb 12.4805 -18.7608
lclavicle -4.07509e-014 2.06736e-014
lhumerus -36.0345 1.92746 86.1659
lradius 42.2444
lwrist 6.72789
lhand -17.48 47.5938
lfingers 7.12502
lthumb 8.77212 77.3915
rfemur -18.3383 8.63237 18.5474
rtibia 18.6271
rfoot 0.261546 -13.8502
rtoes 11.1211
lfemur 13.8612 -8.77334 -28.0923
ltibia 28.9183
lfoot -0.368413 -5.44246
ltoes -22.4013
180
root 1.04203 18.0855 3.04488 -5.16632 1.01194 1.7848
lowerback 14.1883 -1.60092 -2.84196
upperback 0.1261 -2.38408 2.63961
thorax -7.60683 -1.00058 4.92252
lowerneck -11.5017 -0.207216 -1.90908
upperneck 26.427 0.691093 -2.13486
head 10.3376 -0.127235 -0.347904
rclavicle -3.8266e-015 1.98785e-014
rhumerus -38.6839 -13.4788 -74.634
rradius 25.6488
rwrist 5.40772
rhand -13.5873 10.7205
rfingers 7.12502
rthumb 12.527 -18.884
lclavicle -3.8266e-015 1.98785e-014
lhumerus -36.6351 2.4481 86.1358
lradius 41.9799
lwrist 6.17069
lhand -16.7197 49.4039
lfingers 7.12502
lthumb 9.50584 79.1695
rfemur -17.9178 7.63428 19.2753
rtibia 18.8439
rfoot 2.38147 -12.3387
rtoes 17.0407
lfemur 13.6063 -8.59065 -27.6728
ltibia 30.2008
lfoot 1.29455 -5.57286
ltoes -21.8362
181
root 1.01923 18.1041 3.22281 -5.09053 0.672037 1.4374
lowerback 13.7863 -1.48632 -2.51037
upperback 0.203815 -2.16486 2.73678
thorax -7.32772 -0.91392 4.77215
lowerneck -11.754 -0.242038 -1.9542
upperneck 26.7519 0.662664 -2.11209
head 10.5067 -0.148192 -0.337883
rclavicle -1.21756e-015 -3.33958e-014
rhumerus -38.7291 -14.1862 -74.2087
rradius 25.3409
rwrist 5.86455
rhand -13.6504 10.5719
rfingers 7.12502
rthumb 12.4662 -19.0363
lclavicle -1.21756e-015 -3.33958e-014
lhumerus -36.5832 2.76932 86.1351
lradius 41.6875
lwrist 5.95402
lhand -16.0113 50.3986
lfingers 7.12502
lthumb 10.1892 80.1319
rfemur -17.7322 7.28632 20.0425
rtibia 19.3239
rfoot 3.18096 -11.3561
rtoes 19.5154
lfemur 13.0018 -8.23994 -27.1092
ltibia 31.5444
lfoot 3.50777 -5.7277
ltoes -20.5124
182
root 0.996003 18.1231 3.40619 -5.0598 0.41106 1.22427
lowerback 13.9308 -1.37724 -2.40361
upperback -0.135608 -1.99215 2.8666
thorax -7.79116 -0.81291 4.83732
lowerneck -11.6627 -0.247311 -1.96978
upperneck 27.3503 0.684514 -2.16462
head 10.7116 -0.154234 -0.35485
rclavicle 2.85753e-015 -3.18055e-015
rhumerus -39.444 -14.4978 -73.5849
rradius 25.0807
rwrist 6.1836
rhand -13.6617 10.2925
rfingers 7.12502
rthumb 12.4553 -19.3164
lclavicle 2.85753e-015 -3.18055e-015
lhumerus -37.3171 3.05931 86.2635
lradius 41.5036
lwrist 6.14834
lhand -15.2522 49.9595
lfingers 7.12502
lthumb 10.9215 79.6554
rfemur -17.3816 6.90937 20.6394
rtibia 19.7949
rfoot 3.17528 -10.5318
rtoes 19.4372
lfemur 12.2949 -7.9441 -26.6761
ltibia 33.0516
lfoot 6.14211 -5.95849
ltoes -18.7122
